<svg width="174" height="40" viewBox="0 0 174 40" fill="none" xmlns="http://www.w3.org/2000/svg">
<rect width="174" height="40" rx="14" fill="#1A1F16"/>
<path d="M45.3122 15.9406C45.173 15.8006 45.0075 15.6896 44.8252 15.614C44.6429 15.5383 44.4474 15.4996 44.25 15.5H41.25V14.75C41.25 13.3576 40.6969 12.0223 39.7123 11.0377C38.7277 10.0531 37.3924 9.5 36 9.5C34.6076 9.5 33.2723 10.0531 32.2877 11.0377C31.3031 12.0223 30.75 13.3576 30.75 14.75V15.5H27.75C27.3522 15.5 26.9706 15.658 26.6893 15.9393C26.408 16.2206 26.25 16.6022 26.25 17V27.125C26.25 28.9531 27.7969 30.5 29.625 30.5H42.375C43.2593 30.5003 44.1086 30.1545 44.7413 29.5367C45.0596 29.233 45.3132 28.8679 45.4865 28.4634C45.6599 28.059 45.7495 27.6236 45.75 27.1836V17C45.7506 16.8033 45.7122 16.6083 45.6371 16.4265C45.5619 16.2447 45.4515 16.0795 45.3122 15.9406ZM39 23.75H36.75V26C36.75 26.1989 36.671 26.3897 36.5303 26.5303C36.3897 26.671 36.1989 26.75 36 26.75C35.8011 26.75 35.6103 26.671 35.4697 26.5303C35.329 26.3897 35.25 26.1989 35.25 26V23.75H33C32.8011 23.75 32.6103 23.671 32.4697 23.5303C32.329 23.3897 32.25 23.1989 32.25 23C32.25 22.8011 32.329 22.6103 32.4697 22.4697C32.6103 22.329 32.8011 22.25 33 22.25H35.25V20C35.25 19.8011 35.329 19.6103 35.4697 19.4697C35.6103 19.329 35.8011 19.25 36 19.25C36.1989 19.25 36.3897 19.329 36.5303 19.4697C36.671 19.6103 36.75 19.8011 36.75 20V22.25H39C39.1989 22.25 39.3897 22.329 39.5303 22.4697C39.671 22.6103 39.75 22.8011 39.75 23C39.75 23.1989 39.671 23.3897 39.5303 23.5303C39.3897 23.671 39.1989 23.75 39 23.75ZM39.75 15.5H32.25V14.75C32.25 13.7554 32.6451 12.8016 33.3483 12.0983C34.0516 11.3951 35.0054 11 36 11C36.9946 11 37.9484 11.3951 38.6517 12.0983C39.3549 12.8016 39.75 13.7554 39.75 14.75V15.5Z" fill="white"/>
<path d="M65.17 23.42H59.23V21.47H65.17V23.42ZM61.9 15.13H62.5L58.31 27H56.11L61.11 13H63.29L68.29 27H66.09L61.9 15.13ZM73.3275 27.2C72.4208 27.2 71.6275 26.97 70.9475 26.51C70.2675 26.0433 69.7375 25.4233 69.3575 24.65C68.9842 23.8767 68.7975 23.02 68.7975 22.08C68.7975 21.1667 68.9742 20.32 69.3275 19.54C69.6875 18.7533 70.2042 18.1233 70.8775 17.65C71.5575 17.17 72.3742 16.93 73.3275 16.93C74.0142 16.93 74.6408 17.0633 75.2075 17.33C75.7742 17.5967 76.2508 18 76.6375 18.54L76.1575 18.91V12H78.2475V27H76.3375L76.0875 25.08L76.6575 25.49C76.2975 26.0433 75.8342 26.4667 75.2675 26.76C74.7008 27.0533 74.0542 27.2 73.3275 27.2ZM73.6675 25.41C74.1608 25.41 74.6075 25.2867 75.0075 25.04C75.4142 24.7933 75.7342 24.4233 75.9675 23.93C76.2075 23.4367 76.3275 22.82 76.3275 22.08C76.3275 21.3733 76.2075 20.77 75.9675 20.27C75.7342 19.7633 75.4142 19.38 75.0075 19.12C74.6075 18.8533 74.1608 18.72 73.6675 18.72C73.0942 18.72 72.6008 18.8667 72.1875 19.16C71.7808 19.4467 71.4675 19.8433 71.2475 20.35C71.0342 20.85 70.9275 21.4267 70.9275 22.08C70.9275 22.7067 71.0342 23.2733 71.2475 23.78C71.4675 24.28 71.7808 24.6767 72.1875 24.97C72.6008 25.2633 73.0942 25.41 73.6675 25.41ZM84.558 27.2C83.6513 27.2 82.858 26.97 82.178 26.51C81.498 26.0433 80.968 25.4233 80.588 24.65C80.2146 23.8767 80.028 23.02 80.028 22.08C80.028 21.1667 80.2046 20.32 80.558 19.54C80.918 18.7533 81.4346 18.1233 82.108 17.65C82.788 17.17 83.6046 16.93 84.558 16.93C85.2446 16.93 85.8713 17.0633 86.438 17.33C87.0046 17.5967 87.4813 18 87.868 18.54L87.388 18.91V12H89.478V27H87.568L87.318 25.08L87.888 25.49C87.528 26.0433 87.0646 26.4667 86.498 26.76C85.9313 27.0533 85.2846 27.2 84.558 27.2ZM84.898 25.41C85.3913 25.41 85.838 25.2867 86.238 25.04C86.6446 24.7933 86.9646 24.4233 87.198 23.93C87.438 23.4367 87.558 22.82 87.558 22.08C87.558 21.3733 87.438 20.77 87.198 20.27C86.9646 19.7633 86.6446 19.38 86.238 19.12C85.838 18.8533 85.3913 18.72 84.898 18.72C84.3246 18.72 83.8313 18.8667 83.418 19.16C83.0113 19.4467 82.698 19.8433 82.478 20.35C82.2646 20.85 82.158 21.4267 82.158 22.08C82.158 22.7067 82.2646 23.2733 82.478 23.78C82.698 24.28 83.0113 24.6767 83.418 24.97C83.8313 25.2633 84.3246 25.41 84.898 25.41ZM99.6606 27.2C99.0406 27.2 98.5373 27.08 98.1506 26.84C97.7706 26.6 97.4906 26.2933 97.3106 25.92C97.1373 25.5467 97.0506 25.1533 97.0506 24.74V18.79H95.4806L95.6706 17.12H97.0506V14.79L99.1406 14.57V17.12H101.561V18.79H99.1406V23.68C99.1406 24.2533 99.174 24.67 99.2406 24.93C99.3073 25.1833 99.4706 25.3433 99.7306 25.41C99.9906 25.4767 100.404 25.51 100.971 25.51H101.531L101.351 27.2H99.6606ZM107.478 27.2C106.432 27.2 105.535 26.97 104.788 26.51C104.048 26.0433 103.482 25.4233 103.088 24.65C102.702 23.87 102.508 23.01 102.508 22.07C102.508 21.1233 102.702 20.26 103.088 19.48C103.482 18.7 104.048 18.08 104.788 17.62C105.535 17.1533 106.432 16.92 107.478 16.92C108.532 16.92 109.428 17.1533 110.168 17.62C110.915 18.08 111.482 18.7 111.868 19.48C112.262 20.26 112.458 21.1233 112.458 22.07C112.458 23.01 112.262 23.87 111.868 24.65C111.482 25.4233 110.915 26.0433 110.168 26.51C109.428 26.97 108.532 27.2 107.478 27.2ZM107.478 25.41C108.398 25.41 109.102 25.11 109.588 24.51C110.082 23.91 110.328 23.0967 110.328 22.07C110.328 21.0367 110.082 20.2167 109.588 19.61C109.102 19.0033 108.398 18.7 107.478 18.7C106.572 18.7 105.872 19.0033 105.378 19.61C104.885 20.2167 104.638 21.0367 104.638 22.07C104.638 23.0967 104.885 23.91 105.378 24.51C105.872 25.11 106.572 25.41 107.478 25.41ZM119.133 27V13H123.923C125.216 13 126.206 13.2867 126.893 13.86C127.586 14.4267 127.933 15.2733 127.933 16.4C127.933 17.2 127.756 17.8867 127.403 18.46C127.049 19.0333 126.519 19.4267 125.813 19.64L125.983 19.25C127.016 19.4433 127.803 19.8533 128.343 20.48C128.883 21.1067 129.153 21.95 129.153 23.01C129.153 24.25 128.753 25.2267 127.953 25.94C127.153 26.6467 126.053 27 124.653 27H119.133ZM121.313 25.04H124.403C125.143 25.04 125.733 24.87 126.173 24.53C126.619 24.1833 126.843 23.6267 126.843 22.86C126.843 22.0267 126.613 21.45 126.153 21.13C125.699 20.8033 125.116 20.64 124.403 20.64H121.313V25.04ZM121.313 18.68H123.623C124.276 18.68 124.789 18.55 125.163 18.29C125.543 18.0233 125.733 17.5333 125.733 16.82C125.733 16.1 125.543 15.61 125.163 15.35C124.789 15.0833 124.276 14.95 123.623 14.95H121.313V18.68ZM133.17 27.2C132.597 27.2 132.087 27.08 131.64 26.84C131.193 26.5933 130.84 26.2533 130.58 25.82C130.327 25.3867 130.2 24.8767 130.2 24.29C130.2 23.73 130.327 23.2533 130.58 22.86C130.833 22.46 131.17 22.1267 131.59 21.86C132.01 21.5933 132.47 21.3833 132.97 21.23C133.477 21.07 133.99 20.9533 134.51 20.88C135.03 20.8067 135.513 20.7667 135.96 20.76C135.953 19.98 135.787 19.4533 135.46 19.18C135.133 18.9 134.637 18.76 133.97 18.76C133.57 18.76 133.16 18.82 132.74 18.94C132.32 19.0533 131.847 19.27 131.32 19.59L131.08 17.89C131.56 17.5967 132.097 17.3633 132.69 17.19C133.283 17.0167 133.897 16.93 134.53 16.93C135.323 16.93 135.98 17.07 136.5 17.35C137.02 17.63 137.41 18.0933 137.67 18.74C137.93 19.3867 138.06 20.2533 138.06 21.34V23.64C138.06 24.12 138.08 24.4967 138.12 24.77C138.167 25.0367 138.263 25.2267 138.41 25.34C138.557 25.4533 138.78 25.51 139.08 25.51H139.32L139.06 27.2H138.6C138.107 27.2 137.707 27.1467 137.4 27.04C137.1 26.9333 136.857 26.7833 136.67 26.59C136.483 26.39 136.327 26.1533 136.2 25.88C135.847 26.28 135.407 26.6 134.88 26.84C134.36 27.08 133.79 27.2 133.17 27.2ZM133.81 25.56C134.183 25.56 134.567 25.4667 134.96 25.28C135.36 25.0933 135.697 24.8333 135.97 24.5V22.18C135.223 22.2133 134.58 22.3033 134.04 22.45C133.507 22.59 133.093 22.8033 132.8 23.09C132.513 23.3767 132.37 23.7433 132.37 24.19C132.37 24.67 132.497 25.02 132.75 25.24C133.003 25.4533 133.357 25.56 133.81 25.56ZM144.646 32.02C143.739 32.02 142.936 31.9067 142.236 31.68C141.536 31.4533 140.986 31.1233 140.586 30.69C140.193 30.2633 139.996 29.74 139.996 29.12C139.996 28.6 140.143 28.1467 140.436 27.76C140.729 27.38 141.139 27.06 141.666 26.8C141.373 26.64 141.143 26.45 140.976 26.23C140.816 26.0033 140.736 25.7533 140.736 25.48C140.736 25.1733 140.826 24.9 141.006 24.66C141.193 24.42 141.469 24.2233 141.836 24.07C141.303 23.7233 140.896 23.2633 140.616 22.69C140.336 22.1167 140.196 21.4867 140.196 20.8C140.196 20.0867 140.353 19.4367 140.666 18.85C140.986 18.2567 141.446 17.7867 142.046 17.44C142.653 17.0933 143.386 16.92 144.246 16.92C144.699 16.92 145.123 16.9833 145.516 17.11C145.916 17.23 146.276 17.4 146.596 17.62C146.856 17.4733 147.183 17.35 147.576 17.25C147.976 17.1433 148.419 17.09 148.906 17.09C148.973 17.09 149.036 17.09 149.096 17.09C149.156 17.09 149.216 17.09 149.276 17.09L149.076 18.44C148.969 18.44 148.863 18.44 148.756 18.44C148.649 18.44 148.543 18.44 148.436 18.44C148.369 18.44 148.246 18.4467 148.066 18.46C147.886 18.4733 147.713 18.4967 147.546 18.53C147.793 18.85 147.979 19.2033 148.106 19.59C148.233 19.9767 148.296 20.38 148.296 20.8C148.296 21.54 148.136 22.2067 147.816 22.8C147.503 23.3933 147.043 23.8667 146.436 24.22C145.836 24.5733 145.106 24.75 144.246 24.75C144.033 24.75 143.823 24.7367 143.616 24.71C143.416 24.6767 143.223 24.6367 143.036 24.59C142.796 24.67 142.676 24.8133 142.676 25.02C142.676 25.18 142.773 25.3133 142.966 25.42C143.159 25.52 143.466 25.6033 143.886 25.67L146.126 26C147.193 26.16 148.019 26.4667 148.606 26.92C149.199 27.3733 149.496 28.02 149.496 28.86C149.496 29.5333 149.299 30.1033 148.906 30.57C148.519 31.0433 147.963 31.4033 147.236 31.65C146.509 31.8967 145.646 32.02 144.646 32.02ZM144.786 30.3C145.673 30.3 146.349 30.1867 146.816 29.96C147.283 29.74 147.516 29.4067 147.516 28.96C147.516 28.5867 147.363 28.3033 147.056 28.11C146.749 27.9167 146.289 27.7667 145.676 27.66L143.136 27.26C142.789 27.4067 142.489 27.6033 142.236 27.85C141.989 28.1033 141.866 28.41 141.866 28.77C141.866 29.2967 142.126 29.6833 142.646 29.93C143.173 30.1767 143.886 30.3 144.786 30.3ZM144.246 23.14C144.939 23.14 145.463 22.9267 145.816 22.5C146.176 22.0667 146.356 21.5033 146.356 20.81C146.356 20.13 146.176 19.58 145.816 19.16C145.463 18.7333 144.939 18.52 144.246 18.52C143.553 18.52 143.026 18.7333 142.666 19.16C142.313 19.58 142.136 20.13 142.136 20.81C142.136 21.5033 142.313 22.0667 142.666 22.5C143.026 22.9267 143.553 23.14 144.246 23.14Z" fill="white"/>
</svg>
