<svg width="168" height="24" viewBox="0 0 168 24" fill="none" xmlns="http://www.w3.org/2000/svg">
<path d="M18.4687 22.5C18.3109 22.5006 18.1568 22.4514 18.0286 22.3594L12 17.9888L5.97139 22.3594C5.84259 22.4528 5.68742 22.5028 5.52831 22.5023C5.36921 22.5017 5.21441 22.4505 5.08629 22.3562C4.95818 22.2618 4.86339 22.1292 4.81563 21.9774C4.76787 21.8256 4.76961 21.6626 4.82061 21.5119L7.17185 14.5477L1.07811 10.3688C0.946112 10.2783 0.846491 10.1481 0.793797 9.99702C0.741103 9.84595 0.7381 9.682 0.785225 9.5291C0.83235 9.3762 0.927135 9.24238 1.05573 9.14719C1.18432 9.052 1.33999 9.00043 1.49998 9.00001H9.01779L11.2865 2.01798C11.3354 1.86724 11.4308 1.73586 11.5589 1.64267C11.6871 1.54949 11.8415 1.4993 12 1.4993C12.1584 1.4993 12.3128 1.54949 12.441 1.64267C12.5692 1.73586 12.6645 1.86724 12.7134 2.01798L14.9822 9.00236H22.5C22.6602 9.00228 22.8162 9.05349 22.9452 9.1485C23.0741 9.24351 23.1693 9.37731 23.2167 9.53033C23.2641 9.68334 23.2613 9.84751 23.2087 9.99881C23.156 10.1501 23.0563 10.2806 22.9242 10.3711L16.8281 14.5477L19.1779 21.51C19.216 21.6227 19.2267 21.7429 19.2092 21.8606C19.1916 21.9782 19.1464 22.0901 19.0771 22.1868C19.0078 22.2835 18.9165 22.3624 18.8107 22.4168C18.7049 22.4713 18.5877 22.4998 18.4687 22.5Z" fill="#12805D"/>
<path d="M50.4687 22.5C50.3109 22.5006 50.1568 22.4514 50.0286 22.3594L44 17.9888L37.9714 22.3594C37.8426 22.4528 37.6874 22.5028 37.5283 22.5023C37.3692 22.5017 37.2144 22.4505 37.0863 22.3562C36.9582 22.2618 36.8634 22.1292 36.8156 21.9774C36.7679 21.8256 36.7696 21.6626 36.8206 21.5119L39.1719 14.5477L33.0781 10.3688C32.9461 10.2783 32.8465 10.1481 32.7938 9.99702C32.7411 9.84595 32.7381 9.682 32.7852 9.5291C32.8324 9.3762 32.9271 9.24238 33.0557 9.14719C33.1843 9.052 33.34 9.00043 33.5 9.00001H41.0178L43.2865 2.01798C43.3354 1.86724 43.4308 1.73586 43.5589 1.64267C43.6871 1.54949 43.8415 1.4993 44 1.4993C44.1584 1.4993 44.3128 1.54949 44.441 1.64267C44.5692 1.73586 44.6645 1.86724 44.7134 2.01798L46.9822 9.00236H54.5C54.6602 9.00228 54.8162 9.05349 54.9452 9.1485C55.0741 9.24351 55.1693 9.37731 55.2167 9.53033C55.2641 9.68334 55.2613 9.84751 55.2087 9.99881C55.156 10.1501 55.0563 10.2806 54.9242 10.3711L48.8281 14.5477L51.1779 21.51C51.216 21.6227 51.2267 21.7429 51.2092 21.8606C51.1916 21.9782 51.1464 22.0901 51.0771 22.1868C51.0078 22.2835 50.9165 22.3624 50.8107 22.4168C50.7049 22.4713 50.5877 22.4998 50.4687 22.5Z" fill="#12805D"/>
<path d="M82.4687 22.5C82.3109 22.5006 82.1568 22.4514 82.0286 22.3594L76 17.9888L69.9714 22.3594C69.8426 22.4528 69.6874 22.5028 69.5283 22.5023C69.3692 22.5017 69.2144 22.4505 69.0863 22.3562C68.9582 22.2618 68.8634 22.1292 68.8156 21.9774C68.7679 21.8256 68.7696 21.6626 68.8206 21.5119L71.1719 14.5477L65.0781 10.3688C64.9461 10.2783 64.8465 10.1481 64.7938 9.99702C64.7411 9.84595 64.7381 9.682 64.7852 9.5291C64.8324 9.3762 64.9271 9.24238 65.0557 9.14719C65.1843 9.052 65.34 9.00043 65.5 9.00001H73.0178L75.2865 2.01798C75.3354 1.86724 75.4308 1.73586 75.5589 1.64267C75.6871 1.54949 75.8415 1.4993 76 1.4993C76.1584 1.4993 76.3128 1.54949 76.441 1.64267C76.5692 1.73586 76.6645 1.86724 76.7134 2.01798L78.9822 9.00236H86.5C86.6602 9.00228 86.8162 9.05349 86.9452 9.1485C87.0741 9.24351 87.1693 9.37731 87.2167 9.53033C87.2641 9.68334 87.2613 9.84751 87.2087 9.99881C87.156 10.1501 87.0563 10.2806 86.9242 10.3711L80.8281 14.5477L83.1779 21.51C83.216 21.6227 83.2267 21.7429 83.2092 21.8606C83.1916 21.9782 83.1464 22.0901 83.0771 22.1868C83.0078 22.2835 82.9165 22.3624 82.8107 22.4168C82.7049 22.4713 82.5877 22.4998 82.4687 22.5Z" fill="#12805D"/>
<path d="M114.469 22.5C114.311 22.5006 114.157 22.4514 114.029 22.3594L108 17.9888L101.971 22.3594C101.843 22.4528 101.687 22.5028 101.528 22.5023C101.369 22.5017 101.214 22.4505 101.086 22.3562C100.958 22.2618 100.863 22.1292 100.816 21.9774C100.768 21.8256 100.77 21.6626 100.821 21.5119L103.172 14.5477L97.0781 10.3688C96.9461 10.2783 96.8465 10.1481 96.7938 9.99702C96.7411 9.84595 96.7381 9.682 96.7852 9.5291C96.8324 9.3762 96.9271 9.24238 97.0557 9.14719C97.1843 9.052 97.34 9.00043 97.5 9.00001H105.018L107.287 2.01798C107.335 1.86724 107.431 1.73586 107.559 1.64267C107.687 1.54949 107.842 1.4993 108 1.4993C108.158 1.4993 108.313 1.54949 108.441 1.64267C108.569 1.73586 108.665 1.86724 108.713 2.01798L110.982 9.00236H118.5C118.66 9.00228 118.816 9.05349 118.945 9.1485C119.074 9.24351 119.169 9.37731 119.217 9.53033C119.264 9.68334 119.261 9.84751 119.209 9.99881C119.156 10.1501 119.056 10.2806 118.924 10.3711L112.828 14.5477L115.178 21.51C115.216 21.6227 115.227 21.7429 115.209 21.8606C115.192 21.9782 115.146 22.0901 115.077 22.1868C115.008 22.2835 114.916 22.3624 114.811 22.4168C114.705 22.4713 114.588 22.4998 114.469 22.5Z" fill="#12805D"/>
<g clip-path="url(#clip0_7_749)">
<path d="M150.5 9.75H142.438L140 2.25L137.562 9.75H129.5L136.062 14.25L133.531 21.75L140 17.0625L146.469 21.75L143.938 14.25L150.5 9.75Z" stroke="#12805D" stroke-width="2" stroke-linejoin="round"/>
<path d="M140 2.25V17.0625L133.531 21.75L136.062 14.25L129.5 9.75H137.562L140 2.25Z" fill="#12805D"/>
</g>
<defs>
<clipPath id="clip0_7_749">
<rect width="24" height="24" fill="white" transform="translate(128)"/>
</clipPath>
</defs>
</svg>
